<?xml version="1.0" standalone="no"?>
<!DOCTYPE svg PUBLIC "-//W3C//DTD SVG 20010904//EN"
 "http://www.w3.org/TR/2001/REC-SVG-20010904/DTD/svg10.dtd">
<svg version="1.0" xmlns="http://www.w3.org/2000/svg"
 width="479.000000pt" height="479.000000pt" viewBox="0 0 479.000000 479.000000"
 preserveAspectRatio="xMidYMid meet">
<metadata>
Created by potrace 1.11, written by Peter Selinger 2001-2013
</metadata>
<g transform="translate(0.000000,479.000000) scale(0.100000,-0.100000)"
fill="#000000" stroke="none">
<path d="M2278 4785 c-2 -1 -45 -5 -96 -9 -89 -6 -218 -26 -311 -47 -25 -6
-53 -12 -61 -14 -36 -7 -138 -37 -170 -50 -19 -7 -69 -26 -110 -41 -319 -115
-667 -357 -919 -638 -278 -310 -489 -736 -560 -1131 -6 -33 -13 -69 -15 -80
-2 -11 -7 -51 -11 -90 -4 -38 -9 -81 -11 -95 -6 -34 -5 -302 1 -375 11 -138
30 -254 61 -380 14 -55 26 -107 28 -116 2 -8 16 -51 32 -95 95 -276 248 -544
444 -779 60 -71 233 -237 320 -307 362 -290 815 -474 1265 -515 183 -17 458
-7 625 22 135 24 142 25 200 41 232 65 399 133 588 240 87 50 252 160 298 200
12 11 46 39 75 64 78 65 231 223 306 315 158 196 304 458 387 693 47 132 96
329 111 442 3 25 8 56 10 70 16 103 21 367 10 477 -18 179 -29 247 -62 378
-172 697 -627 1261 -1273 1580 -145 71 -385 158 -504 181 -29 6 -90 18 -96 19
-3 1 -27 5 -55 9 -27 4 -61 9 -74 12 -86 13 -422 28 -433 19z"/>
</g>
</svg>
