<?xml version="1.0" encoding="utf-8"?>
<!-- Generator: Adobe Illustrator 24.2.0, SVG Export Plug-In . SVG Version: 6.00 Build 0)  -->
<svg version="1.1" id="Слой_1" xmlns="http://www.w3.org/2000/svg" xmlns:xlink="http://www.w3.org/1999/xlink" x="0px" y="0px"
	 viewBox="0 0 500 155.8" style="enable-background:new 0 0 500 155.8;" xml:space="preserve">
<style type="text/css">
	.st0{fill:#2B2C2B;}
	.st1{fill:#010101;}
	.st2{fill:url(#SVGID_1_);}
	.st3{fill:url(#SVGID_2_);}
	.st4{fill:url(#SVGID_3_);}
	.st5{fill:url(#SVGID_4_);}
	.st6{fill:url(#SVGID_5_);}
	.st7{fill:url(#SVGID_6_);}
	.st8{fill:url(#SVGID_7_);}
	.st9{fill:url(#SVGID_8_);}
	.st10{fill:url(#SVGID_9_);}
	.st11{fill:url(#SVGID_10_);}
	.st12{fill:url(#SVGID_11_);}
	.st13{fill:url(#SVGID_12_);}
</style>
<g>
	<path class="st0" d="M165.7,59c0.2,0.6,0.3,1.2,0.3,1.8c0,1.2-0.3,2-0.8,2.6c-0.5,0.5-1.2,0.8-2.1,0.8h-5.3v21.6
		c-0.3,0.1-0.9,0.2-1.6,0.3c-0.7,0.1-1.4,0.1-2.2,0.1c-1.6,0-2.8-0.3-3.4-0.8c-0.6-0.6-1-1.6-1-3V64.1h-7c-0.2-0.3-0.4-0.8-0.6-1.3
		c-0.2-0.6-0.3-1.2-0.3-1.8c0-1.2,0.3-2,0.8-2.6c0.5-0.5,1.2-0.8,2.1-0.8h20.4C165.3,58,165.5,58.4,165.7,59z"/>
	<path class="st0" d="M196.7,71.7c0,2.4-0.4,4.6-1.1,6.4c-0.7,1.9-1.8,3.4-3.1,4.7c-1.3,1.3-2.9,2.2-4.7,2.9c-1.8,0.7-3.7,1-5.9,1
		c-2.1,0-4.1-0.3-5.9-1c-1.8-0.7-3.3-1.6-4.6-2.9c-1.3-1.3-2.3-2.8-3.1-4.7c-0.7-1.9-1.1-4-1.1-6.4c0-2.4,0.4-4.6,1.1-6.4
		c0.8-1.9,1.8-3.4,3.1-4.7c1.3-1.3,2.9-2.2,4.6-2.9c1.8-0.7,3.7-1,5.8-1c2.1,0,4,0.3,5.8,1c1.8,0.7,3.3,1.6,4.7,2.9
		c1.3,1.3,2.4,2.8,3.1,4.7C196.3,67.1,196.7,69.3,196.7,71.7z M188.3,71.7c0-2.8-0.6-4.9-1.7-6.3c-1.1-1.4-2.7-2.1-4.6-2.1
		c-1.9,0-3.4,0.7-4.6,2.1c-1.2,1.4-1.7,3.5-1.7,6.3c0,2.8,0.6,4.9,1.7,6.3c1.1,1.4,2.7,2.1,4.6,2.1c1.9,0,3.5-0.7,4.6-2.1
		C187.7,76.6,188.3,74.5,188.3,71.7z"/>
	<path class="st0" d="M211.7,77.2l-5.9,8.9c-0.2,0-0.5,0.1-0.7,0.1c-0.2,0-0.4,0-0.7,0c-1.8,0-3.1-0.4-3.9-1.1
		c-0.8-0.7-1.3-1.6-1.3-2.6c0-0.9,0.2-1.7,0.6-2.3c0.4-0.7,0.9-1.4,1.6-2.3l4.9-6.2L199,61.1c0.2-0.4,0.4-0.9,0.7-1.3
		c0.3-0.4,0.6-0.8,1-1.2c0.4-0.4,0.9-0.7,1.5-0.9s1.2-0.3,1.9-0.3c0.9,0,1.7,0.2,2.4,0.7c0.7,0.4,1.4,1.2,2.1,2.3l3.6,5.6l5.4-8.1
		c0.2-0.1,0.6-0.2,1-0.3c0.4-0.1,0.9-0.1,1.3-0.1c1.4,0,2.5,0.3,3.3,1c0.8,0.7,1.2,1.5,1.2,2.5c0,0.9-0.2,1.6-0.7,2.3
		c-0.4,0.7-1.1,1.5-1.8,2.5c-0.8,1-1.6,2-2.3,2.9c-0.7,1-1.5,1.9-2.3,2.9l7.7,10.9c-0.2,1.1-0.8,2.1-1.6,2.7c-0.8,0.7-1.9,1-3.3,1
		c-0.9,0-1.7-0.2-2.3-0.7c-0.6-0.4-1.3-1.2-2-2.3L211.7,77.2z"/>
	<path class="st0" d="M233.2,86.2c-1.6,0-2.8-0.3-3.4-0.8s-1-1.6-1-3V57.6c0.4-0.1,0.9-0.1,1.6-0.3c0.7-0.1,1.4-0.2,2.1-0.2
		c1.5,0,2.7,0.3,3.3,0.8c0.7,0.5,1,1.5,1,3.1v24.8c-0.3,0.1-0.9,0.2-1.6,0.3C234.7,86.1,234,86.2,233.2,86.2z"/>
	<path class="st0" d="M265.2,61.7c0,0.8-0.2,1.5-0.6,2.1c-0.4,0.6-0.9,1.1-1.4,1.4c-0.8-0.5-1.7-1-2.6-1.3c-0.9-0.4-2-0.6-3.2-0.6
		c-2.4,0-4.2,0.7-5.5,2.2c-1.3,1.5-1.9,3.5-1.9,6.2c0,2.8,0.7,4.8,2.1,6.2c1.4,1.4,3.3,2.1,5.7,2.1c1.3,0,2.3-0.2,3.2-0.5
		c0.9-0.3,1.7-0.7,2.5-1.2c0.5,0.4,0.9,1,1.2,1.6s0.4,1.3,0.4,2.1c0,0.7-0.2,1.4-0.6,2c-0.4,0.6-1,1.1-1.9,1.5
		c-0.6,0.2-1.3,0.5-2.4,0.7c-1,0.2-2.3,0.4-3.7,0.4c-2.1,0-4.1-0.3-5.9-0.9c-1.8-0.6-3.4-1.5-4.8-2.7c-1.4-1.2-2.4-2.7-3.2-4.6
		c-0.8-1.9-1.2-4.1-1.2-6.7c0-2.4,0.4-4.6,1.1-6.4c0.8-1.9,1.8-3.4,3.1-4.7c1.3-1.3,2.9-2.2,4.6-2.9c1.8-0.7,3.7-1,5.7-1
		c2.8,0,5.1,0.5,6.6,1.4S265.2,60.3,265.2,61.7z"/>
	<path class="st0" d="M293.6,80c1.5,0,2.6-0.2,3.2-0.7c0.6-0.5,0.9-1.1,0.9-1.7s-0.2-1.1-0.7-1.5c-0.5-0.4-1.2-0.7-2.1-1l-2-0.7
		c-1.4-0.5-2.6-0.9-3.7-1.4c-1.1-0.5-2.1-1.1-2.9-1.7c-0.8-0.7-1.4-1.5-1.9-2.4c-0.4-0.9-0.7-2.1-0.7-3.5c0-2.6,1-4.7,3-6.3
		c2-1.6,4.9-2.4,8.5-2.4c1.3,0,2.6,0.1,3.7,0.3c1.1,0.2,2.1,0.5,3,0.9c0.8,0.4,1.5,0.9,1.9,1.5c0.5,0.6,0.7,1.3,0.7,2.1
		c0,0.8-0.2,1.5-0.6,2.1c-0.4,0.6-0.8,1.1-1.3,1.5c-0.7-0.4-1.6-0.8-2.7-1.1c-1.1-0.3-2.4-0.5-3.8-0.5c-1.4,0-2.4,0.2-3.1,0.6
		c-0.7,0.4-1,0.9-1,1.5c0,0.5,0.2,0.8,0.6,1.1c0.4,0.3,1,0.6,1.8,0.8l2.5,0.8c2.9,0.9,5.2,2.1,6.7,3.6c1.6,1.5,2.3,3.4,2.3,5.9
		c0,1.3-0.3,2.5-0.8,3.6c-0.5,1.1-1.3,2-2.3,2.8c-1,0.8-2.3,1.4-3.9,1.8s-3.3,0.7-5.3,0.7c-1.4,0-2.7-0.1-4-0.3s-2.3-0.6-3.2-1
		c-0.9-0.4-1.6-1-2.1-1.7c-0.5-0.7-0.8-1.4-0.8-2.3c0-0.9,0.3-1.7,0.8-2.3c0.5-0.6,1.1-1.1,1.7-1.5c0.9,0.7,1.9,1.3,3.2,1.8
		C290.7,79.8,292.1,80,293.6,80z"/>
	<path class="st0" d="M332.9,61.7c0,0.8-0.2,1.5-0.6,2.1c-0.4,0.6-0.9,1.1-1.4,1.4c-0.8-0.5-1.7-1-2.6-1.3c-0.9-0.4-2-0.6-3.2-0.6
		c-2.4,0-4.2,0.7-5.5,2.2c-1.3,1.5-1.9,3.5-1.9,6.2c0,2.8,0.7,4.8,2.1,6.2c1.4,1.4,3.3,2.1,5.7,2.1c1.3,0,2.3-0.2,3.2-0.5
		c0.9-0.3,1.7-0.7,2.5-1.2c0.5,0.4,0.9,1,1.2,1.6s0.4,1.3,0.4,2.1c0,0.7-0.2,1.4-0.6,2c-0.4,0.6-1,1.1-1.9,1.5
		c-0.6,0.2-1.3,0.5-2.4,0.7c-1,0.2-2.3,0.4-3.7,0.4c-2.1,0-4.1-0.3-5.9-0.9c-1.8-0.6-3.4-1.5-4.8-2.7c-1.4-1.2-2.4-2.7-3.2-4.6
		c-0.8-1.9-1.2-4.1-1.2-6.7c0-2.4,0.4-4.6,1.1-6.4c0.8-1.9,1.8-3.4,3.1-4.7c1.3-1.3,2.9-2.2,4.6-2.9c1.8-0.7,3.7-1,5.7-1
		c2.8,0,5.1,0.5,6.6,1.4S332.9,60.3,332.9,61.7z"/>
	<path class="st0" d="M343.8,86c-0.7,0.1-1.4,0.1-2.2,0.1c-1.6,0-2.8-0.3-3.4-0.8s-1-1.6-1-3V57.6c0.4-0.1,0.9-0.1,1.6-0.3
		c0.7-0.1,1.4-0.2,2.1-0.2c1.5,0,2.7,0.3,3.3,0.8c0.7,0.5,1,1.5,1,3.1v7.5h8.9v-11c0.4-0.1,0.9-0.1,1.6-0.3c0.7-0.1,1.4-0.2,2.1-0.2
		c1.5,0,2.7,0.3,3.3,0.8c0.7,0.6,1,1.6,1,3.1v24.7c-0.3,0.1-0.9,0.2-1.6,0.3c-0.7,0.1-1.4,0.1-2.2,0.1c-1.6,0-2.8-0.3-3.4-0.8
		s-1-1.6-1-3v-7.4h-8.9v10.8C345.1,85.8,344.5,85.9,343.8,86z"/>
	<path class="st0" d="M396.5,71.7c0,2.4-0.4,4.6-1.1,6.4c-0.7,1.9-1.8,3.4-3.1,4.7c-1.3,1.3-2.9,2.2-4.7,2.9c-1.8,0.7-3.7,1-5.9,1
		c-2.1,0-4.1-0.3-5.9-1c-1.8-0.7-3.3-1.6-4.6-2.9c-1.3-1.3-2.3-2.8-3.1-4.7c-0.7-1.9-1.1-4-1.1-6.4c0-2.4,0.4-4.6,1.1-6.4
		c0.8-1.9,1.8-3.4,3.1-4.7c1.3-1.3,2.9-2.2,4.6-2.9c1.8-0.7,3.7-1,5.8-1c2.1,0,4,0.3,5.8,1c1.8,0.7,3.3,1.6,4.7,2.9
		c1.3,1.3,2.4,2.8,3.1,4.7C396.1,67.1,396.5,69.3,396.5,71.7z M388.2,71.7c0-2.8-0.6-4.9-1.7-6.3c-1.1-1.4-2.7-2.1-4.6-2.1
		c-1.9,0-3.4,0.7-4.6,2.1c-1.2,1.4-1.7,3.5-1.7,6.3c0,2.8,0.6,4.9,1.7,6.3s2.7,2.1,4.6,2.1c1.9,0,3.5-0.7,4.6-2.1
		C387.6,76.6,388.2,74.5,388.2,71.7z"/>
	<path class="st0" d="M429.2,71.7c0,2.4-0.4,4.6-1.1,6.4c-0.7,1.9-1.8,3.4-3.1,4.7c-1.3,1.3-2.9,2.2-4.7,2.9c-1.8,0.7-3.7,1-5.9,1
		c-2.1,0-4.1-0.3-5.9-1c-1.8-0.7-3.3-1.6-4.6-2.9c-1.3-1.3-2.3-2.8-3.1-4.7c-0.7-1.9-1.1-4-1.1-6.4c0-2.4,0.4-4.6,1.1-6.4
		c0.8-1.9,1.8-3.4,3.1-4.7c1.3-1.3,2.9-2.2,4.6-2.9c1.8-0.7,3.7-1,5.8-1c2.1,0,4,0.3,5.8,1c1.8,0.7,3.3,1.6,4.7,2.9
		c1.3,1.3,2.4,2.8,3.1,4.7C428.8,67.1,429.2,69.3,429.2,71.7z M420.8,71.7c0-2.8-0.6-4.9-1.7-6.3c-1.1-1.4-2.7-2.1-4.6-2.1
		c-1.9,0-3.4,0.7-4.6,2.1c-1.2,1.4-1.7,3.5-1.7,6.3c0,2.8,0.6,4.9,1.7,6.3s2.7,2.1,4.6,2.1c1.9,0,3.5-0.7,4.6-2.1
		C420.2,76.6,420.8,74.5,420.8,71.7z"/>
	<path class="st0" d="M435,84.8c-0.8-0.8-1.2-1.8-1.2-3.2V57.6c0.4-0.1,0.9-0.1,1.6-0.3c0.7-0.1,1.4-0.2,2.1-0.2
		c1.5,0,2.7,0.3,3.3,0.8c0.7,0.5,1,1.5,1,3.1v18.4h10.6c0.2,0.3,0.4,0.8,0.6,1.3s0.3,1.2,0.3,1.8c0,1.1-0.2,2-0.7,2.6
		c-0.5,0.6-1.2,0.8-2,0.8h-12.5C436.8,85.9,435.8,85.6,435,84.8z"/>
</g>
<g>
	<path class="st1" d="M147.8,96.2h-3.3v-0.9h7.6v0.9h-3.3v8.5h-1V96.2z"/>
	<path class="st1" d="M153.7,104.3c-0.5-0.3-1-0.7-1.3-1.3c-0.3-0.5-0.5-1.2-0.5-1.8c0-0.7,0.2-1.3,0.5-1.8c0.3-0.5,0.7-1,1.3-1.3
		c0.5-0.3,1.2-0.5,1.8-0.5s1.3,0.2,1.8,0.5s1,0.7,1.3,1.3c0.3,0.5,0.5,1.2,0.5,1.8c0,0.7-0.2,1.3-0.5,1.8s-0.7,1-1.3,1.3
		c-0.5,0.3-1.2,0.5-1.8,0.5S154.3,104.6,153.7,104.3z M156.9,103.6c0.4-0.2,0.7-0.5,0.9-1s0.3-0.9,0.3-1.4s-0.1-1-0.3-1.4
		c-0.2-0.4-0.5-0.7-0.9-1c-0.4-0.2-0.8-0.3-1.3-0.3c-0.5,0-0.9,0.1-1.3,0.3c-0.4,0.2-0.7,0.5-0.9,1c-0.2,0.4-0.3,0.9-0.3,1.4
		s0.1,1,0.3,1.4s0.5,0.7,0.9,1c0.4,0.2,0.8,0.3,1.3,0.3C156,103.9,156.5,103.8,156.9,103.6z"/>
	<path class="st1" d="M165.3,104.7l-2.2-2.9l-2.2,2.9h-1.1l2.8-3.6l-2.6-3.4h1.1l2.1,2.8l2.1-2.8h1l-2.6,3.4l2.8,3.6H165.3z"/>
	<path class="st1" d="M167.9,95.9c-0.1-0.1-0.2-0.3-0.2-0.5c0-0.2,0.1-0.3,0.2-0.5c0.1-0.1,0.3-0.2,0.5-0.2c0.2,0,0.4,0.1,0.5,0.2
		c0.1,0.1,0.2,0.3,0.2,0.5c0,0.2-0.1,0.4-0.2,0.5c-0.1,0.1-0.3,0.2-0.5,0.2C168.2,96.1,168.1,96.1,167.9,95.9z M167.9,97.7h0.9v7
		h-0.9V97.7z"/>
	<path class="st1" d="M172.6,104.3c-0.5-0.3-1-0.7-1.3-1.3c-0.3-0.5-0.5-1.2-0.5-1.9c0-0.7,0.2-1.3,0.5-1.8c0.3-0.5,0.7-1,1.3-1.3
		c0.5-0.3,1.2-0.5,1.9-0.5c0.6,0,1.1,0.1,1.6,0.4c0.5,0.2,0.9,0.6,1.1,1l-0.7,0.5c-0.2-0.3-0.5-0.6-0.9-0.8
		c-0.4-0.2-0.7-0.3-1.2-0.3c-0.5,0-1,0.1-1.4,0.3c-0.4,0.2-0.7,0.5-0.9,1c-0.2,0.4-0.3,0.9-0.3,1.4c0,0.5,0.1,1,0.3,1.4
		s0.5,0.7,0.9,1c0.4,0.2,0.9,0.3,1.4,0.3c0.4,0,0.8-0.1,1.2-0.3c0.4-0.2,0.7-0.4,0.9-0.8l0.7,0.5c-0.3,0.5-0.7,0.8-1.1,1
		s-1,0.4-1.6,0.4C173.7,104.8,173.1,104.6,172.6,104.3z"/>
	<path class="st1" d="M182.5,95.9c-0.1-0.1-0.2-0.3-0.2-0.5c0-0.2,0.1-0.3,0.2-0.5c0.1-0.1,0.3-0.2,0.5-0.2c0.2,0,0.4,0.1,0.5,0.2
		c0.1,0.1,0.2,0.3,0.2,0.5c0,0.2-0.1,0.4-0.2,0.5c-0.1,0.1-0.3,0.2-0.5,0.2C182.8,96.1,182.7,96.1,182.5,95.9z M182.5,97.7h0.9v7
		h-0.9V97.7z"/>
	<path class="st1" d="M186.4,104.5c-0.5-0.2-0.9-0.4-1.2-0.6l0.4-0.7c0.3,0.2,0.7,0.4,1.1,0.6c0.4,0.1,0.9,0.2,1.4,0.2
		c0.6,0,1.1-0.1,1.4-0.3c0.3-0.2,0.5-0.5,0.5-0.8c0-0.3-0.1-0.5-0.3-0.6c-0.2-0.1-0.4-0.3-0.6-0.3c-0.3-0.1-0.6-0.1-1-0.2
		c-0.6-0.1-1-0.2-1.4-0.3c-0.3-0.1-0.6-0.3-0.9-0.6c-0.2-0.3-0.4-0.6-0.4-1.1c0-0.6,0.2-1.1,0.7-1.4s1.2-0.6,2-0.6
		c0.5,0,0.9,0.1,1.4,0.2c0.5,0.1,0.8,0.3,1.1,0.5l-0.4,0.8c-0.6-0.4-1.3-0.6-2.1-0.6c-0.6,0-1.1,0.1-1.4,0.3
		c-0.3,0.2-0.5,0.5-0.5,0.8c0,0.3,0.1,0.5,0.3,0.6c0.2,0.2,0.4,0.3,0.6,0.4c0.3,0.1,0.6,0.2,1.1,0.2c0.6,0.1,1,0.2,1.3,0.3
		c0.3,0.1,0.6,0.3,0.9,0.5c0.2,0.3,0.4,0.6,0.4,1.1c0,0.6-0.3,1.1-0.8,1.5c-0.5,0.4-1.2,0.5-2.1,0.5
		C187.5,104.8,186.9,104.7,186.4,104.5z"/>
	<path class="st1" d="M201.9,98.4c0.5,0.5,0.8,1.3,0.8,2.2v4.1h-0.9v-4c0-0.7-0.2-1.3-0.5-1.7c-0.4-0.4-0.9-0.6-1.6-0.6
		c-0.8,0-1.4,0.2-1.8,0.7c-0.4,0.5-0.7,1.1-0.7,1.9v3.7h-0.9v-7h0.9V99c0.3-0.4,0.6-0.8,1.1-1c0.5-0.2,1-0.4,1.6-0.4
		C200.6,97.6,201.3,97.9,201.9,98.4z"/>
	<path class="st1" d="M206.3,104.3c-0.5-0.3-1-0.7-1.3-1.3c-0.3-0.5-0.5-1.2-0.5-1.8c0-0.7,0.2-1.3,0.5-1.8c0.3-0.5,0.7-1,1.3-1.3
		c0.5-0.3,1.2-0.5,1.8-0.5s1.3,0.2,1.8,0.5s1,0.7,1.3,1.3c0.3,0.5,0.5,1.2,0.5,1.8c0,0.7-0.2,1.3-0.5,1.8s-0.7,1-1.3,1.3
		c-0.5,0.3-1.2,0.5-1.8,0.5S206.8,104.6,206.3,104.3z M209.5,103.6c0.4-0.2,0.7-0.5,0.9-1s0.3-0.9,0.3-1.4s-0.1-1-0.3-1.4
		c-0.2-0.4-0.5-0.7-0.9-1c-0.4-0.2-0.8-0.3-1.3-0.3c-0.5,0-0.9,0.1-1.3,0.3c-0.4,0.2-0.7,0.5-0.9,1c-0.2,0.4-0.3,0.9-0.3,1.4
		s0.1,1,0.3,1.4s0.5,0.7,0.9,1c0.4,0.2,0.8,0.3,1.3,0.3C208.6,103.9,209.1,103.8,209.5,103.6z"/>
	<path class="st1" d="M217.3,104.3c-0.2,0.2-0.4,0.3-0.7,0.4c-0.3,0.1-0.5,0.1-0.8,0.1c-0.7,0-1.2-0.2-1.5-0.5
		c-0.4-0.4-0.5-0.9-0.5-1.5v-4.2h-1.3v-0.8h1.3v-1.5h0.9v1.5h2.1v0.8h-2.1v4.2c0,0.4,0.1,0.7,0.3,1c0.2,0.2,0.5,0.3,0.9,0.3
		c0.2,0,0.4,0,0.6-0.1s0.3-0.2,0.5-0.3L217.3,104.3z"/>
	<path class="st1" d="M227.1,98.3c0.5,0.5,0.7,1.1,0.7,2v4.4h-0.9v-1.1c-0.2,0.4-0.5,0.7-0.9,0.9c-0.4,0.2-0.9,0.3-1.5,0.3
		c-0.8,0-1.4-0.2-1.9-0.6s-0.7-0.9-0.7-1.5c0-0.6,0.2-1.1,0.6-1.4s1.1-0.5,2.1-0.5h2.2v-0.4c0-0.6-0.2-1.1-0.5-1.4
		c-0.3-0.3-0.8-0.5-1.5-0.5c-0.4,0-0.9,0.1-1.3,0.2c-0.4,0.1-0.8,0.3-1.1,0.6l-0.4-0.7c0.4-0.3,0.8-0.5,1.3-0.7
		c0.5-0.2,1-0.2,1.6-0.2C225.9,97.6,226.6,97.9,227.1,98.3z M226,103.7c0.4-0.2,0.7-0.6,0.9-1.1v-1.1h-2.2c-1.2,0-1.8,0.4-1.8,1.3
		c0,0.4,0.2,0.7,0.5,1c0.3,0.2,0.7,0.4,1.3,0.4C225.2,104,225.7,103.9,226,103.7z"/>
	<path class="st1" d="M235,104.3c-0.5-0.3-1-0.7-1.3-1.3s-0.5-1.2-0.5-1.9c0-0.7,0.2-1.3,0.5-1.8c0.3-0.5,0.7-1,1.3-1.3
		s1.2-0.5,1.9-0.5c0.6,0,1.1,0.1,1.6,0.4c0.5,0.2,0.9,0.6,1.1,1l-0.7,0.5c-0.2-0.3-0.5-0.6-0.9-0.8c-0.4-0.2-0.7-0.3-1.2-0.3
		c-0.5,0-1,0.1-1.4,0.3c-0.4,0.2-0.7,0.5-0.9,1c-0.2,0.4-0.3,0.9-0.3,1.4c0,0.5,0.1,1,0.3,1.4c0.2,0.4,0.5,0.7,0.9,1
		c0.4,0.2,0.9,0.3,1.4,0.3c0.4,0,0.8-0.1,1.2-0.3c0.4-0.2,0.6-0.4,0.9-0.8l0.7,0.5c-0.3,0.5-0.7,0.8-1.1,1c-0.5,0.2-1,0.4-1.6,0.4
		C236.1,104.8,235.5,104.6,235,104.3z"/>
	<path class="st1" d="M243.4,98c0.4-0.2,1-0.4,1.6-0.4v0.9l-0.2,0c-0.7,0-1.3,0.2-1.7,0.7c-0.4,0.5-0.6,1.1-0.6,1.9v3.6h-0.9v-7h0.9
		v1.4C242.6,98.6,242.9,98.2,243.4,98z"/>
	<path class="st1" d="M252.7,101.5h-5.9c0.1,0.7,0.3,1.3,0.8,1.8c0.5,0.4,1.1,0.7,1.9,0.7c0.4,0,0.8-0.1,1.2-0.2
		c0.4-0.2,0.7-0.4,0.9-0.7l0.5,0.6c-0.3,0.4-0.7,0.7-1.2,0.9c-0.5,0.2-1,0.3-1.5,0.3c-0.7,0-1.4-0.2-1.9-0.5c-0.6-0.3-1-0.7-1.3-1.3
		s-0.5-1.2-0.5-1.8c0-0.7,0.1-1.3,0.4-1.8c0.3-0.5,0.7-1,1.2-1.3c0.5-0.3,1.1-0.5,1.8-0.5s1.2,0.2,1.8,0.5s0.9,0.7,1.2,1.3
		c0.3,0.5,0.4,1.2,0.4,1.8L252.7,101.5z M247.7,99.1c-0.5,0.4-0.7,1-0.8,1.7h5c-0.1-0.7-0.3-1.3-0.8-1.7c-0.5-0.4-1-0.6-1.7-0.6
		C248.7,98.4,248.1,98.7,247.7,99.1z"/>
	<path class="st1" d="M265.5,98.4c0.5,0.5,0.8,1.3,0.8,2.2v4.1h-0.9v-4c0-0.7-0.2-1.3-0.5-1.7c-0.4-0.4-0.8-0.6-1.5-0.6
		c-0.7,0-1.3,0.2-1.7,0.7c-0.4,0.5-0.6,1.1-0.6,1.9v3.7H260v-4c0-0.7-0.2-1.3-0.5-1.7c-0.4-0.4-0.9-0.6-1.5-0.6
		c-0.7,0-1.3,0.2-1.7,0.7c-0.4,0.5-0.6,1.1-0.6,1.9v3.7h-0.9v-7h0.9V99c0.2-0.4,0.6-0.8,1-1c0.4-0.2,1-0.3,1.5-0.3
		c0.6,0,1.1,0.1,1.5,0.4c0.4,0.2,0.8,0.6,1,1.1c0.3-0.5,0.6-0.8,1.1-1.1s1-0.4,1.7-0.4C264.3,97.6,265,97.9,265.5,98.4z"/>
	<path class="st1" d="M275,101.5h-5.9c0.1,0.7,0.3,1.3,0.8,1.8c0.5,0.4,1.1,0.7,1.9,0.7c0.4,0,0.8-0.1,1.2-0.2
		c0.4-0.2,0.7-0.4,0.9-0.7l0.5,0.6c-0.3,0.4-0.7,0.7-1.2,0.9c-0.5,0.2-1,0.3-1.5,0.3c-0.7,0-1.4-0.2-1.9-0.5c-0.6-0.3-1-0.7-1.3-1.3
		s-0.5-1.2-0.5-1.8c0-0.7,0.1-1.3,0.4-1.8c0.3-0.5,0.7-1,1.2-1.3c0.5-0.3,1.1-0.5,1.8-0.5s1.2,0.2,1.8,0.5s0.9,0.7,1.2,1.3
		c0.3,0.5,0.4,1.2,0.4,1.8L275,101.5z M269.9,99.1c-0.5,0.4-0.7,1-0.8,1.7h5c-0.1-0.7-0.3-1.3-0.8-1.7c-0.5-0.4-1-0.6-1.7-0.6
		C270.9,98.4,270.4,98.7,269.9,99.1z"/>
</g>
<linearGradient id="SVGID_1_" gradientUnits="userSpaceOnUse" x1="275.7008" y1="75.4667" x2="272.6121" y2="67.7239">
	<stop  offset="0.1974" style="stop-color:#3BB992"/>
	<stop  offset="0.3873" style="stop-color:#39B88F"/>
	<stop  offset="0.6291" style="stop-color:#33B785"/>
	<stop  offset="0.8939" style="stop-color:#29B574"/>
</linearGradient>
<circle class="st2" cx="274.2" cy="71.7" r="4.2"/>
<g>
	
		<linearGradient id="SVGID_2_" gradientUnits="userSpaceOnUse" x1="263.9056" y1="359.9907" x2="284.9708" y2="359.9907" gradientTransform="matrix(-0.9998 -2.176078e-02 2.176078e-02 -0.9998 356.165 426.2016)">
		<stop  offset="1.832419e-03" style="stop-color:#E9E413"/>
		<stop  offset="3.925813e-02" style="stop-color:#E7DF17"/>
		<stop  offset="0.2904" style="stop-color:#DEC822"/>
		<stop  offset="0.5377" style="stop-color:#D8B927"/>
		<stop  offset="0.7772" style="stop-color:#D4AF29"/>
		<stop  offset="1" style="stop-color:#D3AC2A"/>
	</linearGradient>
	<path class="st3" d="M89.6,56.8c3.9,0.1,7.1,1.5,9.9,4.1c0.8,0.8,0.8,1.8,0.1,2.6c-0.7,0.7-1.8,0.7-2.6,0c-4.3-4.1-10.5-4.2-15-0.3
		c-0.8,0.7-1.9,0.6-2.5-0.1c-0.7-0.8-0.6-1.8,0.2-2.5C82.6,58,85.9,56.8,89.6,56.8z"/>
	<g>
		
			<linearGradient id="SVGID_3_" gradientUnits="userSpaceOnUse" x1="84.4946" y1="56.9717" x2="92.134" y2="56.9717" gradientTransform="matrix(0.9998 2.176078e-02 -2.176078e-02 0.9998 -4.9275 -9.8669)">
			<stop  offset="1.832419e-03" style="stop-color:#E9E413"/>
			<stop  offset="3.925813e-02" style="stop-color:#E7DF17"/>
			<stop  offset="0.2904" style="stop-color:#DEC822"/>
			<stop  offset="0.5377" style="stop-color:#D8B927"/>
			<stop  offset="0.7772" style="stop-color:#D4AF29"/>
			<stop  offset="1" style="stop-color:#D3AC2A"/>
		</linearGradient>
		<path class="st4" d="M79.9,45.5c2,1.2,3.9,2.5,5.9,3.7c0.2,0.2,0.2,0.3,0.1,0.5c-0.5,1.6-2,2.7-3.6,2.7c-1.7,0-3.2-1-3.7-2.6
			C78,48.3,78.5,46.6,79.9,45.5z"/>
		
			<linearGradient id="SVGID_4_" gradientUnits="userSpaceOnUse" x1="99.9912" y1="56.9587" x2="107.6183" y2="56.9587" gradientTransform="matrix(0.9998 2.176078e-02 -2.176078e-02 0.9998 -4.9275 -9.8669)">
			<stop  offset="1.832419e-03" style="stop-color:#E9E413"/>
			<stop  offset="3.925813e-02" style="stop-color:#E7DF17"/>
			<stop  offset="0.2904" style="stop-color:#DEC822"/>
			<stop  offset="0.5377" style="stop-color:#D8B927"/>
			<stop  offset="0.7772" style="stop-color:#D4AF29"/>
			<stop  offset="1" style="stop-color:#D3AC2A"/>
		</linearGradient>
		<path class="st5" d="M100,45.9c1.3,1.1,1.7,2.8,1.1,4.4c-0.6,1.5-2.2,2.5-3.8,2.4c-1.7-0.1-3.1-1.3-3.5-2.8
			c-0.1-0.2-0.1-0.4,0.2-0.5C96,48.3,98,47.1,100,45.9z"/>
	</g>
	
		<linearGradient id="SVGID_5_" gradientUnits="userSpaceOnUse" x1="233.465" y1="40.3688" x2="254.5302" y2="40.3688" gradientTransform="matrix(0.4902 -0.8716 0.8716 0.4902 -48.7621 282.6424)">
		<stop  offset="1.832419e-03" style="stop-color:#E9E413"/>
		<stop  offset="3.925813e-02" style="stop-color:#E7DF17"/>
		<stop  offset="0.2904" style="stop-color:#DEC822"/>
		<stop  offset="0.5377" style="stop-color:#D8B927"/>
		<stop  offset="0.7772" style="stop-color:#D4AF29"/>
		<stop  offset="1" style="stop-color:#D3AC2A"/>
	</linearGradient>
	<path class="st6" d="M109.1,91.4c-1.9,3.3-4.7,5.6-8.3,6.8c-1,0.3-2-0.1-2.3-1.1c-0.3-1,0.2-1.9,1.2-2.2c5.6-1.9,8.7-7.3,7.4-13.1
		c-0.2-1,0.3-2,1.3-2.2c1-0.2,1.9,0.3,2.1,1.4C111.4,84.6,110.9,88.1,109.1,91.4z"/>
	
		<linearGradient id="SVGID_6_" gradientUnits="userSpaceOnUse" x1="39.4709" y1="276.6605" x2="47.1102" y2="276.6605" gradientTransform="matrix(0.2697 0.9629 -0.9629 0.2697 374.2568 -28.0061)">
		<stop  offset="1.832419e-03" style="stop-color:#E9E413"/>
		<stop  offset="3.925813e-02" style="stop-color:#E7DF17"/>
		<stop  offset="0.2904" style="stop-color:#DEC822"/>
		<stop  offset="0.5377" style="stop-color:#D8B927"/>
		<stop  offset="0.7772" style="stop-color:#D4AF29"/>
		<stop  offset="1" style="stop-color:#D3AC2A"/>
	</linearGradient>
	<path class="st7" d="M122.2,85.1c-0.6,2.2-1.2,4.5-1.8,6.7c-0.1,0.3-0.2,0.3-0.5,0.3c-1.6,0-3.2-1.1-3.6-2.6
		c-0.5-1.6,0-3.4,1.4-4.3C119,84.1,120.8,84.1,122.2,85.1z"/>
	
		<linearGradient id="SVGID_7_" gradientUnits="userSpaceOnUse" x1="253.2677" y1="391.8299" x2="260.8948" y2="391.8299" gradientTransform="matrix(-0.9629 0.2697 -0.2697 -0.9629 465.2613 409.8298)">
		<stop  offset="1.832419e-03" style="stop-color:#E9E413"/>
		<stop  offset="3.925813e-02" style="stop-color:#E7DF17"/>
		<stop  offset="0.2904" style="stop-color:#DEC822"/>
		<stop  offset="0.5377" style="stop-color:#D8B927"/>
		<stop  offset="0.7772" style="stop-color:#D4AF29"/>
		<stop  offset="1" style="stop-color:#D3AC2A"/>
	</linearGradient>
	<path class="st8" d="M110.7,105.8c-1.6-0.7-2.5-2.2-2.3-3.9c0.1-1.6,1.3-3.1,2.9-3.4c1.6-0.4,3.3,0.3,4.2,1.7
		c0.1,0.2,0.2,0.3,0,0.6C113.9,102.4,112.3,104.1,110.7,105.8z"/>
	
		<linearGradient id="SVGID_8_" gradientUnits="userSpaceOnUse" x1="1.6607" y1="117.9492" x2="22.7259" y2="117.9492" gradientTransform="matrix(0.4796 0.8775 -0.8775 0.4796 169.3377 22.5594)">
		<stop  offset="1.832419e-03" style="stop-color:#E9E413"/>
		<stop  offset="3.925813e-02" style="stop-color:#E7DF17"/>
		<stop  offset="0.2904" style="stop-color:#DEC822"/>
		<stop  offset="0.5377" style="stop-color:#D8B927"/>
		<stop  offset="0.7772" style="stop-color:#D4AF29"/>
		<stop  offset="1" style="stop-color:#D3AC2A"/>
	</linearGradient>
	<path class="st9" d="M68.6,91.6c-1.8-3.4-2.3-6.9-1.3-10.6c0.3-1.1,1.2-1.6,2.2-1.4c1,0.2,1.5,1.2,1.2,2.2
		c-1.4,5.8,1.6,11.2,7.2,13.2c1,0.3,1.5,1.3,1.2,2.2c-0.3,1-1.3,1.4-2.3,1.1C73.2,97.1,70.5,94.8,68.6,91.6z"/>
	
		<linearGradient id="SVGID_9_" gradientUnits="userSpaceOnUse" x1="-14.439" y1="169.3525" x2="-6.7996" y2="169.3525" gradientTransform="matrix(0.9854 0.1705 -0.1705 0.9854 105.4437 -62.7333)">
		<stop  offset="1.832419e-03" style="stop-color:#E9E413"/>
		<stop  offset="3.925813e-02" style="stop-color:#E7DF17"/>
		<stop  offset="0.2904" style="stop-color:#DEC822"/>
		<stop  offset="0.5377" style="stop-color:#D8B927"/>
		<stop  offset="0.7772" style="stop-color:#D4AF29"/>
		<stop  offset="1" style="stop-color:#D3AC2A"/>
	</linearGradient>
	<path class="st10" d="M64.4,98.5c1.8,1.5,3.5,3,5.3,4.5c0.2,0.2,0.2,0.3,0.1,0.5c-0.7,1.5-2.3,2.4-4,2.2c-1.7-0.2-3-1.5-3.3-3.1
		C62.1,101,62.9,99.4,64.4,98.5z"/>
	
		<linearGradient id="SVGID_10_" gradientUnits="userSpaceOnUse" x1="146.6573" y1="434.2394" x2="154.2845" y2="434.2394" gradientTransform="matrix(-0.2813 0.9596 -0.9596 -0.2813 516.6392 65.131)">
		<stop  offset="1.832419e-03" style="stop-color:#E9E413"/>
		<stop  offset="3.925813e-02" style="stop-color:#E7DF17"/>
		<stop  offset="0.2904" style="stop-color:#DEC822"/>
		<stop  offset="0.5377" style="stop-color:#D8B927"/>
		<stop  offset="0.7772" style="stop-color:#D4AF29"/>
		<stop  offset="1" style="stop-color:#D3AC2A"/>
	</linearGradient>
	<path class="st11" d="M60.2,90.6c-1.4,1-3.2,0.9-4.5-0.1c-1.3-1-1.9-2.8-1.4-4.3c0.5-1.6,2-2.7,3.7-2.7c0.2,0,0.4,0,0.5,0.3
		C59.1,86.1,59.7,88.3,60.2,90.6z"/>
	
		<linearGradient id="SVGID_11_" gradientUnits="userSpaceOnUse" x1="54.6303" y1="83.8348" x2="137.4826" y2="83.8348" gradientTransform="matrix(0.9998 2.176078e-02 -2.176078e-02 0.9998 -4.9275 -9.8669)">
		<stop  offset="1.832419e-03" style="stop-color:#E9E413"/>
		<stop  offset="3.925813e-02" style="stop-color:#E7DF17"/>
		<stop  offset="0.2904" style="stop-color:#DEC822"/>
		<stop  offset="0.5377" style="stop-color:#D8B927"/>
		<stop  offset="0.7772" style="stop-color:#D4AF29"/>
		<stop  offset="1" style="stop-color:#D3AC2A"/>
	</linearGradient>
	<path class="st12" d="M129.4,83.9c-2.7-8.8-8.7-14.2-17.5-16.6c0,0,0,0,0,0c2-6.3,1.9-12.3-0.9-18.2c-2.2-4.7-5.5-8.2-9.9-10.5
		c-0.5-0.3-1,0.4-0.6,0.8c6.5,5.9,8.4,12,6,19.3c-2.4,7.3-9.2,12.2-17,12.2c-7.4,0-14.2-5-16.5-12.2c-1.2-3.6-1.2-7.3,0-10.9
		c1.1-3.4,3-6.1,5.6-8.2c0.5-0.4,0-1.1-0.6-0.8c-2.3,1.2-4.3,2.9-6.1,4.9c-5.7,6.7-7,14.3-4.9,22.8c0,0,0,0,0,0
		c-1.5,0.3-2.9,0.8-4.3,1.3l0,0.1c-6.6,2.6-11.4,7.3-14,14.5c-1,2.7-1.4,5.5-1.3,8.3c0,0.6,0.9,0.6,1,0c0.3-2.6,1.2-5,2.6-7.3
		c2.2-3.4,5.5-6.1,9.4-7.3c0.7-0.2,1.4-0.4,2.1-0.5l0,0c0.1,0,0.1,0,0.2,0c0.6-0.1,1.1-0.2,1.7-0.2l0,0c7-0.7,13.8,3,17.2,9.4
		c3.5,6.8,2.2,15.2-3.3,20.6c-2.7,2.6-5.9,4.3-9.6,4.8c-3.7,0.5-7.1,0-10.3-1.5c-0.5-0.3-1,0.5-0.5,0.9c2.3,1.7,4.9,2.8,7.7,3.5
		c8.9,2.1,16.6-0.5,23.1-6.9c0,0,0,0,0,0c10.3,11.5,25.1,9.6,32.6,3.3c0.5-0.4,0-1.1-0.6-0.9c-8.3,4.1-15.4,3.4-21.1-2.1
		c-5.8-5.7-7.1-14.5-3-21.4c4.4-7.4,13.2-10.7,21.3-7.6c3.8,1.4,7,4.2,9,7.7c1.3,2.4,2.1,4.8,2.3,7.4c0,0.6,0.9,0.6,1,0
		C130.6,89.5,130.3,86.7,129.4,83.9z"/>
</g>
<linearGradient id="SVGID_12_" gradientUnits="userSpaceOnUse" x1="275.7419" y1="75.5698" x2="272.6532" y2="67.8271">
	<stop  offset="1.832419e-03" style="stop-color:#E9E413"/>
	<stop  offset="3.925813e-02" style="stop-color:#E7DF17"/>
	<stop  offset="0.2904" style="stop-color:#DEC822"/>
	<stop  offset="0.5377" style="stop-color:#D8B927"/>
	<stop  offset="0.7772" style="stop-color:#D4AF29"/>
	<stop  offset="1" style="stop-color:#D3AC2A"/>
</linearGradient>
<circle class="st13" cx="274.2" cy="71.7" r="4.2"/>
</svg>
